<?xml version="1.0" encoding="utf-8"?>
<!-- Generator: Adobe Illustrator 26.5.0, SVG Export Plug-In . SVG Version: 6.00 Build 0)  -->
<svg version="1.1" id="그룹_1108" xmlns="http://www.w3.org/2000/svg" xmlns:xlink="http://www.w3.org/1999/xlink" x="0px"
	 y="0px" viewBox="0 0 26 26" style="enable-background:new 0 0 26 26;" xml:space="preserve">
<style type="text/css">
	.st0{clip-path:url(#SVGID_00000000217341298824691200000011336712233231224484_);}
	.st1{fill:#999999;}
</style>
<g>
	<defs>
		<rect id="SVGID_1_" width="26" height="26"/>
	</defs>
	<clipPath id="SVGID_00000128472076474874587620000007733011863801412284_">
		<use xlink:href="#SVGID_1_"  style="overflow:visible;"/>
	</clipPath>
	<g id="그룹_1107" style="clip-path:url(#SVGID_00000128472076474874587620000007733011863801412284_);">
		<path id="패스_142" class="st1" d="M13,3.8c0.7,0,1.3,0.2,1.9,0.6L20.7,9c0.8,0.6,1.2,1.5,1.2,2.4v7.8c0,1.7-1.4,3.1-3.1,3.1
			H7.1c-1.7,0-3.1-1.4-3.1-3.1v-7.8c0-0.9,0.4-1.8,1.2-2.4l5.9-4.6C11.7,4,12.3,3.8,13,3.8 M13,2.2c-1,0-2.1,0.3-2.9,1L4.3,7.7
			C3.1,8.6,2.4,10,2.4,11.4v7.8c0,2.6,2.1,4.7,4.7,4.7c0,0,0,0,0,0h11.7c2.6,0,4.7-2.1,4.7-4.7v0v-7.8c0-1.4-0.7-2.8-1.8-3.7
			l-5.9-4.6C15.1,2.5,14,2.2,13,2.2"/>
		<path id="패스_143" class="st1" d="M14.8,17.2c0,1-0.8,1.8-1.8,1.8c-1,0-1.8-0.8-1.8-1.8c0-1,0.8-1.8,1.8-1.8c0,0,0,0,0,0
			C14,15.4,14.8,16.2,14.8,17.2"/>
	</g>
</g>
</svg>
