<svg xmlns="http://www.w3.org/2000/svg" width="60" height="60" viewBox="0 0 60 60">
  <g id="그룹_1591" data-name="그룹 1591" transform="translate(11516 9669)">
    <g id="타원_27" data-name="타원 27" transform="translate(-11516 -9669)" fill="none" stroke="#cecece" stroke-width="1">
      <circle cx="30" cy="30" r="30" stroke="none"/>
      <circle cx="30" cy="30" r="29.5" fill="none"/>
    </g>
    <g id="XMLID_105_" transform="translate(-11500.818 -9654.036)">
      <path id="XMLID_106_" d="M15.952,111.966,11.417,116.5h0a4.81,4.81,0,0,1-6.8-6.8h0l4.535-4.535A1.6,1.6,0,0,0,6.882,102.9l-4.535,4.535h0a8.016,8.016,0,0,0,11.338,11.336h0l4.535-4.535a1.6,1.6,0,0,0-2.267-2.267Z" transform="translate(0 -91.447)" fill="#888"/>
      <path id="XMLID_107_" d="M121.114,8.048A8.016,8.016,0,0,0,107.429,2.38h0l-4.535,4.534a1.6,1.6,0,1,0,2.267,2.267L109.7,4.648h0a4.81,4.81,0,0,1,6.8,6.8h0l-4.535,4.535a1.6,1.6,0,1,0,2.267,2.267l4.535-4.535h0A7.964,7.964,0,0,0,121.114,8.048Z" transform="translate(-91.477)" fill="#888"/>
      <path id="XMLID_108_" d="M81.683,93.02a1.6,1.6,0,0,0,2.267,0L93.02,83.95a1.6,1.6,0,0,0-2.267-2.267l-9.069,9.069A1.6,1.6,0,0,0,81.683,93.02Z" transform="translate(-72.533 -72.501)" fill="#888"/>
    </g>
  </g>
</svg>
