<svg xmlns="http://www.w3.org/2000/svg" xmlns:xlink="http://www.w3.org/1999/xlink" width="60" height="60" viewBox="0 0 60 60">
  <defs>
    <clipPath id="clip-path">
      <path id="패스_315" data-name="패스 315" d="M30,0A30,30,0,1,1,0,30,30,30,0,0,1,30,0Z" transform="translate(-11720 -9669)" fill="#e0e0e0"/>
    </clipPath>
  </defs>
  <g id="마스크_그룹_18" data-name="마스크 그룹 18" transform="translate(11720 9669)" clip-path="url(#clip-path)">
    <g id="KakaoTalk_logo" transform="translate(-11720 -9669)">
      <path id="패스_316" data-name="패스 316" d="M60,55.313A4.687,4.687,0,0,1,55.313,60H4.688A4.687,4.687,0,0,1,0,55.313V4.688A4.687,4.687,0,0,1,4.688,0H55.313A4.687,4.687,0,0,1,60,4.688Z" fill="#ffe812"/>
      <g id="그룹_1588" data-name="그룹 1588" transform="translate(6.304 5.817)">
        <path id="패스_317" data-name="패스 317" d="M23.7,8.437c-9.98,0-18.071,6.379-18.071,14.248,0,5.087,3.382,9.552,8.47,12.072-.277.955-1.779,6.141-1.839,6.549,0,0-.036.306.162.423a.545.545,0,0,0,.431.026c.569-.079,6.593-4.311,7.636-5.046a22.893,22.893,0,0,0,3.21.224c9.98,0,18.071-6.379,18.071-14.248S33.676,8.437,23.7,8.437Z"/>
        <path id="패스_318" data-name="패스 318" d="M15.235,31.145a1.021,1.021,0,0,1-1.043-1V23.956H12.566a1.021,1.021,0,1,1,0-2.042H17.9a1.021,1.021,0,1,1,0,2.042H16.278v6.194A1.021,1.021,0,0,1,15.235,31.145Zm9.142-.014a.855.855,0,0,1-.868-.46l-.516-1.351H19.814L19.3,30.672a.855.855,0,0,1-.867.46,1.591,1.591,0,0,1-.663-.144c-.287-.133-.564-.5-.247-1.48l2.494-6.564a1.452,1.452,0,0,1,2.779,0l2.493,6.561c.317.986.041,1.35-.246,1.483a1.594,1.594,0,0,1-.663.144h0Zm-1.932-3.659L21.4,24.515l-1.041,2.958h2.083Zm4.519,3.52a.979.979,0,0,1-1-.956V22.957a1.065,1.065,0,0,1,2.129,0v6.125h2.215a.957.957,0,1,1,0,1.911Zm5.792.138a1.044,1.044,0,0,1-1.043-1.043V22.957a1.043,1.043,0,0,1,2.085,0V25.2l2.909-2.909a.81.81,0,0,1,.578-.232,1.056,1.056,0,0,1,1.024.969.812.812,0,0,1-.23.635L35.7,26.036l2.566,3.4a1.042,1.042,0,0,1-1.664,1.256l-2.445-3.24-.362.362v2.275A1.044,1.044,0,0,1,32.756,31.131Z" transform="translate(-1.531 -3.485)" fill="#ffe812"/>
      </g>
    </g>
  </g>
</svg>
