<svg id="그룹_1585" data-name="그룹 1585" xmlns="http://www.w3.org/2000/svg" xmlns:xlink="http://www.w3.org/1999/xlink" width="60" height="60" viewBox="0 0 60 60">
  <defs>
    <clipPath id="clip-path">
      <rect id="사각형_1195" data-name="사각형 1195" width="60" height="60" fill="none"/>
    </clipPath>
  </defs>
  <g id="그룹_1584" data-name="그룹 1584" clip-path="url(#clip-path)">
    <path id="패스_311" data-name="패스 311" d="M60,30A30,30,0,1,0,22.753,59.117V39.168H16.566V30h6.186V26.05c0-10.211,4.621-14.944,14.646-14.944a33.078,33.078,0,0,1,6.522.745v8.31c-.708-.075-1.938-.112-3.466-.112-4.919,0-6.82,1.863-6.82,6.708V30h9.8L41.75,39.168H33.634V59.78A30,30,0,0,0,60,30" fill="#0866ff"/>
    <path id="패스_312" data-name="패스 312" d="M163.238,120.61l1.683-9.168h-9.8V108.2c0-4.845,1.9-6.708,6.82-6.708,1.528,0,2.758.037,3.466.112v-8.31a33.078,33.078,0,0,0-6.522-.745c-10.025,0-14.646,4.733-14.646,14.944v3.95h-6.186v9.168h6.186v19.949a30.169,30.169,0,0,0,10.882.664V120.61Z" transform="translate(-121.488 -81.442)" fill="#fff"/>
  </g>
</svg>
